HIERARCHY
ROOT joint_Root
{
	OFFSET 0.0 0.0 0.0
	CHANNELS 6 Xposition Yposition Zposition Zrotation Xrotation Yrotation 
	JOINT Hips
	{
		OFFSET -17.1583 93.1646 452.98
		CHANNELS 6 Xposition Yposition Zposition Zrotation Xrotation Yrotation 
		JOINT Spine
		{
			OFFSET 15.7357 0.0 0.0
			CHANNELS 6 Xposition Yposition Zposition Zrotation Xrotation Yrotation 
			JOINT Chest
			{
				OFFSET 8.98455 -0.406207 0.0
				CHANNELS 6 Xposition Yposition Zposition Zrotation Xrotation Yrotation 
				JOINT Neck
				{
					OFFSET 16.3773 0.0 0.0
					CHANNELS 6 Xposition Yposition Zposition Zrotation Xrotation Yrotation 
					JOINT Head
					{
						OFFSET 6.45672 0.0 0.0
						CHANNELS 6 Xposition Yposition Zposition Zrotation Xrotation Yrotation 
						End Site
						{
							OFFSET 0.0 0.0 0.0
						}
					}
				}
				JOINT Shoulder_L
				{
					OFFSET 12.9942 -0.242716 4.98039
					CHANNELS 6 Xposition Yposition Zposition Zrotation Xrotation Yrotation 
					JOINT UpperArm_L
					{
						OFFSET 5.34809 0.0 0.0
						CHANNELS 6 Xposition Yposition Zposition Zrotation Xrotation Yrotation 
						JOINT LowerArm_L
						{
							OFFSET 24.3286 1.87007e-05 0.0
							CHANNELS 6 Xposition Yposition Zposition Zrotation Xrotation Yrotation 
							JOINT Hand_L
							{
								OFFSET 22.2916 0.0 0.0
								CHANNELS 6 Xposition Yposition Zposition Zrotation Xrotation Yrotation 
								End Site
								{
									OFFSET 0.0 0.0 0.0
								}
							}
						}
					}
				}
				JOINT Shoulder_R
				{
					OFFSET 12.9945 -0.242716 -4.98039
					CHANNELS 6 Xposition Yposition Zposition Zrotation Xrotation Yrotation 
					JOINT UpperArm_R
					{
						OFFSET -5.34813 0.0 0.0
						CHANNELS 6 Xposition Yposition Zposition Zrotation Xrotation Yrotation 
						JOINT LowerArm_R
						{
							OFFSET -24.3289 0.000322201 0.0
							CHANNELS 6 Xposition Yposition Zposition Zrotation Xrotation Yrotation 
							JOINT Hand_R
							{
								OFFSET -22.2915 -0.000108084 0.0
								CHANNELS 6 Xposition Yposition Zposition Zrotation Xrotation Yrotation 
								End Site
								{
									OFFSET 0.0 0.0 0.0
								}
							}
						}
					}
				}
			}
		}
		JOINT UpperLeg_L
		{
			OFFSET -2.19248 -6.46944 0.0
			CHANNELS 6 Xposition Yposition Zposition Zrotation Xrotation Yrotation 
			JOINT LowerLeg_L
			{
				OFFSET 39.0811 0.0 -1.23785e-05
				CHANNELS 6 Xposition Yposition Zposition Zrotation Xrotation Yrotation 
				JOINT Foot_L
				{
					OFFSET 40.9854 0.0 -1.26872e-05
					CHANNELS 6 Xposition Yposition Zposition Zrotation Xrotation Yrotation 
					JOINT Toes_L
					{
						OFFSET 11.7543 0.0 0.0
						CHANNELS 6 Xposition Yposition Zposition Zrotation Xrotation Yrotation 
						End Site
						{
							OFFSET 0.0 0.0 0.0
						}
					}
				}
			}
		}
		JOINT UpperLeg_R
		{
			OFFSET -2.19251 6.46944 0.0
			CHANNELS 6 Xposition Yposition Zposition Zrotation Xrotation Yrotation 
			JOINT LowerLeg_R
			{
				OFFSET -39.0811 -0.00228153 -0.0401928
				CHANNELS 6 Xposition Yposition Zposition Zrotation Xrotation Yrotation 
				JOINT Foot_R
				{
					OFFSET -40.9854 0.0 0.0
					CHANNELS 6 Xposition Yposition Zposition Zrotation Xrotation Yrotation 
					JOINT Toes_R
					{
						OFFSET -11.7543 0.0 0.0
						CHANNELS 6 Xposition Yposition Zposition Zrotation Xrotation Yrotation 
						End Site
						{
							OFFSET 0.0 0.0 0.0
						}
					}
				}
			}
		}
	}
}
MOTION
Frames:	5
Frame Time:	0.0333333
0.000000 0.000000 0.000000 0.000000 0.000000 -0.000000 174.919000 92.276300 187.072000 94.908700 -46.480800 -2.550770 15.735700 0.000005 -0.000001 28.371000 85.547900 -29.447100 8.984550 -0.406207 -0.000000 -3.622790 -7.723540 -2.399860 16.377300 -0.000001 -0.000001 -2.511230 -5.360250 -5.556730 6.456720 -0.000001 -0.000000 3.371350 -7.980310 3.316000 12.994200 -0.242716 4.980390 -91.718300 5.942580 -73.841200 5.348090 -0.000007 -0.000001 -50.456900 -21.700700 -27.742500 24.328600 0.000019 0.000005 11.444300 11.185900 -46.220100 22.291600 -0.000001 0.000005 9.943710 4.868530 9.999940 12.994500 -0.242716 -4.980390 89.476100 1.501250 -70.759700 -5.348130 -0.000001 -0.000004 -47.247500 -9.932940 14.373100 -24.328900 0.000322 -0.000009 0.150090 0.697456 -12.227400 -22.291500 -0.000108 -0.000004 7.119720 5.237260 1.767400 -2.192480 -6.469440 -0.000000 -175.134000 -20.689300 4.492420 39.081100 -0.000007 -0.000012 -0.026118 0.104796 13.994300 40.985400 -0.000006 -0.000013 -14.847400 4.353690 -58.517400 11.754300 -0.000000 0.000003 -0.006856 -0.078434 -19.769700 -2.192510 6.469440 -0.000001 -169.998000 6.325270 150.904000 -39.081100 -0.002282 -0.040193 -0.002991 0.022446 15.725400 -40.985400 0.000008 0.000006 -1.300620 -10.175300 -62.533800 -11.754300 -0.000006 -0.000006 0.001103 0.146394 -10.636400
0.000000 0.000000 0.000000 0.000000 0.000000 -0.000000 172.833000 91.374400 189.992000 95.884200 -46.319400 -2.146200 15.735700 0.000005 -0.000001 24.871900 85.191300 -25.954000 8.984550 -0.406207 -0.000000 -3.823160 -8.610770 -2.455780 16.377300 -0.000001 -0.000001 -2.986570 -5.420550 -5.358160 6.456720 -0.000001 -0.000000 3.523620 -7.482660 3.722720 12.994200 -0.242716 4.980390 -91.577000 5.568640 -74.160900 5.348090 -0.000007 -0.000001 -52.413100 -23.760900 -30.178000 24.328600 0.000019 0.000005 13.132100 10.443000 -52.155000 22.291600 -0.000001 0.000005 10.333600 4.863180 10.104400 12.994500 -0.242716 -4.980390 89.643600 0.997865 -70.343000 -5.348130 -0.000001 -0.000004 -43.207000 -15.004500 16.923800 -24.328900 0.000322 -0.000009 0.012530 0.061485 -12.443000 -22.291500 -0.000108 -0.000004 10.681800 5.248510 1.472030 -2.192480 -6.469440 -0.000000 -175.748000 -19.222700 5.136310 39.081100 -0.000007 -0.000012 -0.044805 0.150538 16.574700 40.985400 -0.000006 -0.000013 -14.464600 3.721610 -59.663100 11.754300 -0.000000 0.000003 -0.016689 -0.148218 -22.627000 -2.192510 6.469440 -0.000001 -168.870000 8.833320 151.043000 -39.081100 -0.002282 -0.040193 0.006547 -0.023033 7.919970 -40.985400 0.000008 0.000006 -2.919300 -8.777990 -64.684500 -11.754300 -0.000006 -0.000006 0.001322 0.141254 -10.844900
0.000000 0.000000 0.000000 0.000000 0.000000 -0.000000 170.267000 90.448000 193.078000 96.165000 -46.294000 -2.472860 15.735700 0.000005 -0.000001 21.670700 85.055700 -22.553000 8.984550 -0.406207 -0.000000 -4.211340 -9.090910 -2.103190 16.377300 -0.000001 -0.000001 -3.406600 -5.520150 -5.154270 6.456720 -0.000001 -0.000000 3.379530 -7.286280 3.868670 12.994200 -0.242716 4.980390 -91.572800 5.604350 -74.296100 5.348090 -0.000007 -0.000001 -54.578300 -24.271000 -31.654500 24.328600 0.000019 0.000005 14.293500 9.215320 -57.847600 22.291600 -0.000001 0.000005 10.860800 4.868290 10.004700 12.994500 -0.242716 -4.980390 89.755800 0.675205 -70.115600 -5.348130 -0.000001 -0.000004 -39.692200 -19.934400 19.322200 -24.328900 0.000322 -0.000009 -0.190889 -0.936043 -11.466300 -22.291500 -0.000108 -0.000004 15.835100 5.250710 1.413670 -2.192480 -6.469440 -0.000000 -175.602000 -18.231800 5.761760 39.081100 -0.000007 -0.000012 -0.059655 0.171520 19.177800 40.985400 -0.000006 -0.000013 -14.502400 3.450220 -59.840000 11.754300 -0.000000 0.000003 -0.034065 -0.235537 -26.236900 -2.192510 6.469440 -0.000001 -168.020000 9.900920 149.154000 -39.081100 -0.002282 -0.040193 0.008629 -0.041247 7.301950 -40.985400 0.000008 0.000006 -3.870960 -6.658260 -67.261800 -11.754300 -0.000006 -0.000006 0.001167 0.144933 -10.695700
0.000000 0.000000 0.000000 0.000000 0.000000 -0.000000 167.110000 89.558800 196.352000 95.788400 -46.289800 -3.648810 15.735700 0.000005 -0.000001 16.641100 85.081000 -17.123900 8.984550 -0.406207 -0.000000 -5.024270 -9.362490 -1.379650 16.377300 -0.000001 -0.000001 -3.883680 -5.672700 -5.003870 6.456720 -0.000001 -0.000000 3.416940 -7.180790 3.882750 12.994200 -0.242716 4.980390 -91.635500 5.809250 -74.246900 5.348090 -0.000007 -0.000001 -56.457800 -22.945500 -31.153400 24.328600 0.000019 0.000005 15.794300 8.115100 -63.478400 22.291600 -0.000001 0.000005 11.810200 4.881270 9.749500 12.994500 -0.242716 -4.980390 89.891800 0.299692 -70.150900 -5.348130 -0.000001 -0.000004 -37.296900 -23.933300 21.444100 -24.328900 0.000322 -0.000009 -0.210336 -1.277820 -9.302540 -22.291500 -0.000108 -0.000004 21.156000 5.230560 1.939680 -2.192480 -6.469440 -0.000000 -174.551000 -18.399900 6.086660 39.081100 -0.000007 -0.000012 -0.059182 0.146564 21.988800 40.985400 -0.000006 -0.000013 -14.060100 4.214530 -58.180400 11.754300 -0.000000 0.000003 -0.071417 -0.367229 -31.788600 -2.192510 6.469440 -0.000001 -167.250000 9.764290 148.253000 -39.081100 -0.002282 -0.040193 0.006277 -0.021423 7.799950 -40.985400 0.000008 0.000006 -2.860170 -8.796380 -66.582500 -11.754300 -0.000006 -0.000006 0.001398 0.139339 -10.922600
0.000000 0.000000 0.000000 0.000000 0.000000 -0.000000 163.434000 88.802200 199.652000 94.577200 -46.321400 -6.229650 15.735700 0.000005 -0.000001 7.674590 85.326100 -7.508580 8.984550 -0.406207 -0.000000 -6.552990 -9.268310 -0.198681 16.377300 -0.000001 -0.000001 -4.357370 -5.848500 -5.148830 6.456720 -0.000001 -0.000000 3.529920 -7.373410 3.861050 12.994200 -0.242716 4.980390 -91.857500 6.476970 -73.960300 5.348090 -0.000007 -0.000001 -58.015300 -19.919300 -29.179700 24.328600 0.000019 0.000005 18.235800 7.566400 -68.215800 22.291600 -0.000001 0.000005 12.263900 4.894370 9.489890 12.994500 -0.242716 -4.980390 89.905800 0.261909 -70.213100 -5.348130 -0.000001 -0.000004 -35.608200 -26.597700 23.580200 -24.328900 0.000322 -0.000009 -0.036663 -0.293468 -6.920220 -22.291500 -0.000108 -0.000004 24.107200 5.166820 3.537380 -2.192480 -6.469440 -0.000000 -173.119000 -18.200200 5.032260 39.081100 -0.000007 -0.000012 -0.023704 0.050069 25.334800 40.985400 -0.000006 -0.000013 -13.895900 3.879220 -54.589200 11.754300 -0.000000 0.000003 -0.138018 -0.530522 -38.943000 -2.192510 6.469440 -0.000001 -164.419000 10.077700 146.439000 -39.081100 -0.002282 -0.040193 -0.034194 0.212116 10.034300 -40.985400 0.000008 0.000006 9.109050 -12.230300 -58.140900 -11.754300 -0.000006 -0.000006 0.002276 0.108369 -12.178600
